# xmcd
#
# Track frame offsets:
# 150
# 13732
# 24671
# 35241
# 47073
# 59522
# 70071
# 81531
# 94697
# 106640
# 117693
# 129971
# 141139
# 150561
# 161238
# 173846
# 184679
# 197267
# 209080
# 221981
#
# Disc length: 3147 seconds
#
#
# Revision: 0
# Processed by: cddbd v1.5.2PL0 Copyright (c) Steve Scherf et al.
# Submitted via: FreeRIP 2.96 
#
DISCID=280c4914
DTITLE=Webb Pierce - Country Music Legends
DYEAR=2006
DGENRE=Country
TTITLE0=Wondering
TTITLE1=There Stands the Glass
TTITLE2=That's Me Without You
TTITLE3=Don't Throw Your Life Away
TTITLE4=Back Street Affair
TTITLE5=It's Been So Long
TTITLE6=Slowly
TTITLE7=That Heart Belongs to Me
TTITLE8=New Silver Bells
TTITLE9=I'm Walking the Dog
TTITLE10=I'll Go on Alone
TTITLE11=I Don't Care
TTITLE12=In the Jailhouse Now
TTITLE13=More and More
TTITLE14=Even Tho
TTITLE15=Your Good for Nothing Heart
TTITLE16=Groovie Boogie Woogie Boy
TTITLE17=High Geared Daddy
TTITLE18=Georgia Rag
TTITLE19=Freight Train Blues (with Buddy Attaway)
EXTD=
EXTT0=
EXTT1=
EXTT2=
EXTT3=
EXTT4=
EXTT5=
EXTT6=
EXTT7=
EXTT8=
EXTT9=
EXTT10=
EXTT11=
EXTT12=
EXTT13=
EXTT14=
EXTT15=
EXTT16=
EXTT17=
EXTT18=
EXTT19=
PLAYORDER=
